<?xml version="1.0" encoding="utf-8"?>
<!-- Generator: Adobe Illustrator 22.0.0, SVG Export Plug-In . SVG Version: 6.00 Build 0)  -->
<svg version="1.1" id="Layer_1" xmlns="http://www.w3.org/2000/svg" xmlns:xlink="http://www.w3.org/1999/xlink" x="0px" y="0px"
	 viewBox="0 0 731 541" style="enable-background:new 0 0 731 541;" xml:space="preserve">
<style type="text/css">
	.st0{opacity:0.6;fill:url(#SVGID_1_);enable-background:new    ;}
	.st1{fill:#DFCCB4;stroke:#000000;stroke-width:1.5;}
	.st2{fill:#DB866D;stroke:#000000;stroke-width:1.25;}
	.st3{fill:#FCECCD;stroke:#000000;stroke-width:0.75;stroke-linejoin:round;}
	.st4{fill:#6E9B72;stroke:#000000;stroke-width:1.5;stroke-linejoin:round;}
	.st5{enable-background:new    ;}
	.st6{fill:#004F1F;}
	.st7{fill:#DAEAC3;stroke:#000000;stroke-width:1.25;stroke-miterlimit:10;}
	.st8{fill:#006929;}
	.st9{opacity:0.6;fill:url(#SVGID_2_);enable-background:new    ;}
	.st10{fill:#F8D284;}
	.st11{fill:#FCECCD;stroke:#000000;stroke-width:1.5;stroke-linecap:round;stroke-miterlimit:10;}
	.st12{fill:#CFE3EF;stroke:#000000;stroke-width:1.5;stroke-linecap:round;stroke-miterlimit:10;}
	.st13{fill:#BB8129;}
	.st14{opacity:0.6;fill:url(#SVGID_3_);enable-background:new    ;}
	.st15{fill:#FFFFFF;}
	.st16{fill:#A54064;}
	.st17{fill:#FCECCD;stroke:#000000;stroke-width:1.25;stroke-miterlimit:10;}
	.st18{fill:#D7AEB5;}
	.st19{fill:#FFFFFF;fill-opacity:0.7;}
	.st20{fill:none;stroke:#000000;stroke-width:1.5;stroke-linecap:round;stroke-miterlimit:10;}
	.st21{fill:none;stroke:#000000;stroke-width:1.75;stroke-linecap:round;stroke-miterlimit:10;}
	.st22{fill:none;stroke:#FFFFFF;stroke-width:2;stroke-linejoin:round;stroke-miterlimit:10;}
	.st23{fill:#790442;}
</style>
<g id="Template">
</g>
<g id="veggie">
	
		<radialGradient id="SVGID_1_" cx="127.3" cy="149.3" r="93.1" gradientTransform="matrix(1 0 0 -1 0 292)" gradientUnits="userSpaceOnUse">
		<stop  offset="0.1206" style="stop-color:#A7C59F"/>
		<stop  offset="1" style="stop-color:#A7C59F;stop-opacity:0"/>
	</radialGradient>
	<circle class="st0" cx="127.3" cy="142.7" r="93.1"/>
	<path class="st1" d="M190.4,121.1c3.9,0,7.1-2.7,7.1-6v-1.3C197.5,94,166,78,127.2,78S57,94,57,113.7v1.3c0,3.3,3.2,6,7.1,6
		L190.4,121.1L190.4,121.1z"/>
	<path class="st1" d="M63.6,171.6c-3.9,0-7.1,1.7-7.1,4.7v1.2c0,17.7,31.5,19.7,70.2,19.7s70.2-2,70.2-19.7v-1.2
		c0-3-3.2-4.7-7.1-4.7H63.6z"/>
	<g>
		<path class="st2" d="M98.9,167.3H58.5c-1.7,0-3.1-1.4-3.1-3.1l0,0c0-1.7,1.4-3.1,3.1-3.1h40.3c1.7,0,3.1,1.4,3.1,3.1l0,0
			C102,165.9,100.6,167.3,98.9,167.3z"/>
		<path class="st2" d="M147.4,167.3h-40.3c-1.7,0-3.1-1.4-3.1-3.1l0,0c0-1.7,1.4-3.1,3.1-3.1h40.3c1.7,0,3.1,1.4,3.1,3.1l0,0
			C150.5,165.9,149.1,167.3,147.4,167.3z"/>
		<path class="st2" d="M196,167.3h-40.3c-1.7,0-3.1-1.4-3.1-3.1l0,0c0-1.7,1.4-3.1,3.1-3.1H196c1.7,0,3.1,1.4,3.1,3.1l0,0
			C199.1,165.9,197.7,167.3,196,167.3z"/>
	</g>
	<g id="seeds">
		<g>
			<path class="st3" d="M109.3,86.3c0.5-0.4,0.2-1.2-0.4-1.2c-0.9-0.1-2.2-0.1-3,0.1C102.7,86,104.6,90.7,109.3,86.3z"/>
		</g>
		<g>
			<path class="st3" d="M145.8,86.3c-0.5-0.4-0.2-1.2,0.4-1.2c0.9-0.1,2.2-0.1,3,0.1C152.4,86,150.4,90.7,145.8,86.3z"/>
		</g>
		<g>
			<path class="st3" d="M118.6,88c0.4,0.5,1.2,0.3,1.3-0.3c0.1-0.9,0.2-2.1,0-3C119.2,81.5,114.5,83.1,118.6,88z"/>
		</g>
		<g>
			<path class="st3" d="M110.2,89.2c-0.6,0.1-0.9,0.8-0.5,1.2c0.7,0.7,1.6,1.4,2.5,1.8C115.2,93.5,116.6,88.7,110.2,89.2z"/>
		</g>
		<g>
			<path class="st3" d="M139.1,88.3c-0.6,0.1-0.9,0.8-0.5,1.2c0.7,0.7,1.6,1.4,2.5,1.8C144.1,92.6,145.5,87.8,139.1,88.3z"/>
		</g>
		<g>
			<path class="st3" d="M137.1,83.5c-0.1-0.6-0.9-0.8-1.3-0.4c-0.6,0.7-1.3,1.7-1.6,2.6C133.1,88.7,138.1,89.8,137.1,83.5z"/>
		</g>
		<g>
			<path class="st3" d="M97.7,86.2c-0.1-0.6-0.9-0.8-1.3-0.4c-0.6,0.7-1.3,1.7-1.6,2.6C93.8,91.4,98.7,92.5,97.7,86.2z"/>
		</g>
		<g>
			<path class="st3" d="M129.3,85.8c0.6,0.2,0.6,1,0.1,1.3c-0.8,0.4-2,0.9-2.9,1C123.2,88.4,123.3,83.3,129.3,85.8z"/>
		</g>
		<g>
			<path class="st3" d="M158.8,85.5c0.6-0.2,1.2,0.3,1,0.9c-0.3,0.9-0.8,2-1.4,2.7C156.3,91.6,152.9,87.9,158.8,85.5z"/>
		</g>
	</g>
	<g>
		<g>
			<path class="st4" d="M41.6,151c0,0,2.1-11.6,13.1-11.1C63.4,140.3,61,154.5,41.6,151z"/>
			<g>
				<path d="M55.3,144.1c-3.3,1.5-6.6,3.1-9.7,5c-1.6,0.9-3.1,1.9-4.5,3s-2.8,2.2-3.8,3.6l0,0c-0.2,0.3-0.7,0.4-1,0.2
					s-0.4-0.7-0.2-1l0,0c1.2-1.6,2.7-2.7,4.3-3.7c1.5-1,3.1-2,4.8-2.8c3.2-1.7,6.6-3.2,10-4.5C55.3,143.9,55.4,143.9,55.3,144.1
					C55.4,144,55.4,144.1,55.3,144.1z"/>
			</g>
		</g>
		<g>
			<path class="st4" d="M185.1,142.9c0,0-3.5,11.3-14.4,9.5C162.3,150.9,166.3,137.1,185.1,142.9z"/>
			<g>
				<path d="M170.8,148.1c3.5-1.1,6.9-2.3,10.2-3.8c1.7-0.7,3.3-1.5,4.8-2.4s3-1.9,4.2-3.1l0,0c0.3-0.3,0.7-0.3,1.1-0.1
					c0.3,0.3,0.3,0.7,0.1,1.1l0,0c-1.4,1.4-3,2.3-4.7,3.2c-1.6,0.8-3.3,1.6-5,2.2c-3.4,1.3-6.9,2.4-10.5,3.3c-0.1,0-0.2,0-0.2-0.1
					C170.6,148.2,170.7,148.1,170.8,148.1z"/>
			</g>
		</g>
		<g>
			<path class="st4" d="M68.9,143.5c0,0,9.7-6.7,17.1,1.4C91.8,151.3,80.1,159.7,68.9,143.5z"/>
			<g>
				<path d="M83.4,148.3C80,147,76.6,145.9,73,145c-1.7-0.5-3.5-0.8-5.3-1.1c-1.8-0.2-3.6-0.4-5.2-0.1l0,0c-0.4,0.1-0.8-0.2-0.9-0.6
					c-0.1-0.4,0.2-0.8,0.6-0.9l0,0c2-0.2,3.8,0,5.6,0.4s3.6,0.8,5.3,1.4c3.5,1.1,6.9,2.4,10.2,3.9c0.1,0,0.1,0.1,0.1,0.2
					C83.6,148.3,83.5,148.3,83.4,148.3z"/>
			</g>
		</g>
		<g>
			<path class="st4" d="M210.1,151.6c0,0-2.2-11.6-13.2-11C188.3,141,190.8,155.2,210.1,151.6z"/>
			<g>
				<path d="M196.6,144.4c3.4,1.3,6.8,2.8,10,4.4c1.6,0.8,3.2,1.8,4.8,2.8c1.5,1,3,2.1,4.3,3.7c0.3,0.3,0.2,0.8-0.1,1.1
					s-0.8,0.2-1.1-0.1l0,0l0,0c-1-1.4-2.4-2.5-3.8-3.6c-1.4-1.1-2.9-2.1-4.5-3c-3.1-1.8-6.4-3.5-9.7-4.9c-0.1,0-0.1-0.1-0.1-0.2
					S196.5,144.4,196.6,144.4z"/>
			</g>
		</g>
	</g>
	<g>
		<g class="st5">
			<path class="st6" d="M98.9,155.8h-6.3c-1.8-5.3-3-10.5-3.9-16.2h5.5c0.2,3.1,0.9,7.1,1.9,11.2c0.9-3.4,1.4-7.5,1.7-11.2h4.8
				C101.9,145.4,100.8,150.6,98.9,155.8z"/>
			<path class="st6" d="M103.9,155.8v-16.2h9.4v3.8h-4.4v2.4h3.7v3.6h-3.7v2.6h4.5v3.8H103.9z"/>
			<path class="st6" d="M120.7,156.2c-4.3,0-6.2-2.9-6.2-8c0-6.1,2.8-9,7.5-9c2.3,0,4.2,1.2,5.2,3.1l-2.2,1.9
				c-1.2-0.9-1.8-1.1-2.8-1.1c-1.6,0-2.4,1-2.4,4.3c0,3.7,0.6,4.8,1.7,4.8c0.3,0,0.6-0.1,0.8-0.1v-2.7h-1.3v-3.6h6.2v8.4
				C125.5,155.4,123.4,156.2,120.7,156.2z"/>
			<path class="st6" d="M134.7,156.2c-4.3,0-6.2-2.9-6.2-8c0-6.1,2.8-9,7.5-9c2.3,0,4.2,1.2,5.2,3.1l-2.2,1.9
				c-1.2-0.9-1.8-1.1-2.8-1.1c-1.6,0-2.4,1-2.4,4.3c0,3.7,0.6,4.8,1.7,4.8c0.3,0,0.6-0.1,0.8-0.1v-2.7h-1.3v-3.6h6.2v8.4
				C139.5,155.4,137.3,156.2,134.7,156.2z"/>
			<path class="st6" d="M143.1,155.8v-16.2h5v16.2H143.1z"/>
			<path class="st6" d="M150.5,155.8v-16.2h9.4v3.8h-4.4v2.4h3.7v3.6h-3.7v2.6h4.5v3.8H150.5z"/>
		</g>
	</g>
	<path class="st7" d="M197.4,134c-6.9,0-10.5-0.5-13.9-1c-3.5-0.5-7.1-1-14.1-1c-7.1,0-10.6,0.5-14.1,1c-3.4,0.5-7,1-14,1
		s-10.5-0.5-14-1s-7.1-1-14.1-1c-7.1,0-10.6,0.5-14.1,1c-3.4,0.5-7,1-14,1s-10.5-0.5-14-1c-3.4-0.5-7-1-13.9-1
		c-1.9,0-3.4-1.6-3.4-3.5c0-1.9,1.5-3.5,3.4-3.5c6.9,0,10.4,0.5,13.8,1c3.5,0.5,7.1,1,14.1,1c7.1,0,10.6-0.5,14.1-1
		c3.4-0.5,7-1,14-1s10.5,0.5,14,1c3.5,0.5,7.1,1,14.1,1c7.1,0,10.6-0.5,14.1-1c3.4-0.5,7-1,14-1s10.5,0.5,14,1s7,1,14.1,1
		c1.9,0,3.4,1.6,3.4,3.5C200.8,132.4,199.3,134,197.4,134z"/>
	<g>
		<g>
			<path class="st8" d="M126.7,64.9l-2.3-35.5c-0.1-1.7,1.1-3.1,2.8-3.2c1.7-0.1,3.1,1.1,3.2,2.8c0,0.1,0,0.3,0,0.4l-2.3,35.5
				c0,0.4-0.4,0.7-0.7,0.7C127,65.5,126.8,65.2,126.7,64.9z"/>
		</g>
		<g>
			<path class="st8" d="M97.3,68.2L85.7,40c-0.6-1.5,0.1-3.3,1.6-3.9s3.3,0.1,3.9,1.6c0.1,0.1,0.1,0.3,0.1,0.4l7.3,29.6
				c0.1,0.4-0.1,0.8-0.5,0.9C97.8,68.7,97.4,68.5,97.3,68.2z"/>
		</g>
		<g>
			<path class="st8" d="M72.1,77l-21-19.2c-1.2-1.1-1.3-3-0.2-4.3c1.1-1.2,3-1.3,4.3-0.2c0.1,0.1,0.2,0.2,0.3,0.4l17.7,22.4
				c0.2,0.3,0.2,0.7-0.1,1C72.8,77.3,72.4,77.3,72.1,77z"/>
		</g>
		<g>
			<path class="st8" d="M53.7,93.3l-24.9-5.4c-1.6-0.4-2.7-2-2.3-3.6c0.4-1.6,2-2.7,3.6-2.3c0.2,0,0.4,0.1,0.5,0.2L54.1,92
				c0.4,0.2,0.5,0.6,0.4,0.9C54.4,93.2,54,93.3,53.7,93.3z"/>
		</g>
		<g>
			<g>
				<path class="st8" d="M155.9,67.8l7.3-29.6c0.4-1.6,2-2.6,3.6-2.2c1.6,0.4,2.6,2,2.2,3.6c0,0.1-0.1,0.3-0.1,0.4l-11.6,28.2
					c-0.1,0.4-0.6,0.5-0.9,0.4C156,68.5,155.8,68.1,155.9,67.8z"/>
			</g>
			<g>
				<path class="st8" d="M181.4,76.1L199,53.7c1-1.3,2.9-1.5,4.2-0.5s1.5,2.9,0.5,4.2c-0.1,0.1-0.2,0.3-0.3,0.4l-21,19.2
					c-0.3,0.3-0.7,0.2-1,0C181.1,76.7,181.1,76.3,181.4,76.1z"/>
			</g>
			<g>
				<path class="st8" d="M200.4,91.9l23.5-9.8c1.5-0.6,3.3,0.1,3.9,1.6c0.6,1.5-0.1,3.3-1.6,3.9c-0.2,0.1-0.3,0.1-0.5,0.2l-24.9,5.4
					c-0.4,0.1-0.8-0.2-0.8-0.5C199.9,92.4,200.1,92,200.4,91.9z"/>
			</g>
		</g>
	</g>
</g>
<g id="fries">
	
		<radialGradient id="SVGID_2_" cx="349.9" cy="149.3" r="93.1" gradientTransform="matrix(1 0 0 -1 0 292)" gradientUnits="userSpaceOnUse">
		<stop  offset="0.1206" style="stop-color:#F8DB7C"/>
		<stop  offset="0.8832" style="stop-color:#F8DB7C;stop-opacity:0.1328"/>
		<stop  offset="1" style="stop-color:#F8DB7C;stop-opacity:0"/>
	</radialGradient>
	<circle class="st9" cx="349.9" cy="142.7" r="93.1"/>
	<g>
		<g>
			<path class="st10" d="M349.4,64.9l-2.3-35.5c-0.1-1.7,1.1-3.1,2.8-3.2c1.7-0.1,3.1,1.1,3.2,2.8c0,0.1,0,0.3,0,0.4l-2.3,35.5
				c0,0.4-0.4,0.7-0.7,0.7C349.7,65.5,349.4,65.2,349.4,64.9z"/>
		</g>
		<g>
			<path class="st10" d="M320,68.2L308.3,40c-0.6-1.5,0.1-3.3,1.6-3.9c1.5-0.6,3.3,0.1,3.9,1.6c0.1,0.1,0.1,0.3,0.1,0.4l7.3,29.6
				c0.1,0.4-0.1,0.8-0.5,0.9C320.4,68.7,320.1,68.5,320,68.2z"/>
		</g>
		<g>
			<path class="st10" d="M294.8,77l-21-19.2c-1.2-1.1-1.3-3-0.2-4.3c1.1-1.2,3-1.3,4.3-0.2c0.1,0.1,0.2,0.2,0.3,0.4l17.7,22.4
				c0.2,0.3,0.2,0.7-0.1,1C295.4,77.3,295,77.3,294.8,77z"/>
		</g>
		<g>
			<path class="st10" d="M276.4,93.3l-24.9-5.4c-1.6-0.4-2.7-2-2.3-3.6s2-2.7,3.6-2.3c0.2,0,0.4,0.1,0.5,0.2l23.5,9.8
				c0.4,0.2,0.5,0.6,0.4,0.9C277,93.2,276.7,93.3,276.4,93.3z"/>
		</g>
		<g>
			<g>
				<path class="st10" d="M378.5,67.8l7.3-29.6c0.4-1.6,2-2.6,3.6-2.2s2.6,2,2.2,3.6c0,0.1-0.1,0.3-0.1,0.4l-11.6,28.2
					c-0.1,0.4-0.6,0.5-0.9,0.4C378.6,68.5,378.4,68.1,378.5,67.8z"/>
			</g>
			<g>
				<path class="st10" d="M404,76.1l17.7-22.4c1-1.3,2.9-1.5,4.2-0.5c1.3,1,1.5,2.9,0.5,4.2c-0.1,0.1-0.2,0.3-0.3,0.4L405,77
					c-0.3,0.3-0.7,0.2-1,0C403.8,76.7,403.8,76.3,404,76.1z"/>
			</g>
			<g>
				<path class="st10" d="M423,91.9l23.5-9.8c1.5-0.6,3.3,0.1,3.9,1.6s-0.1,3.3-1.6,3.9c-0.2,0.1-0.3,0.1-0.5,0.2l-24.9,5.4
					c-0.4,0.1-0.8-0.2-0.8-0.5C422.5,92.4,422.7,92,423,91.9z"/>
			</g>
		</g>
	</g>
	<path class="st11" d="M320.6,156.8h5.7c1,0,1.9-0.8,1.9-1.9c0,0,1.5-35,0-46.9s-4-19.2-4-19.2c0-1-0.8-1.9-1.9-1.9h-5.7
		c-1,0-1.9,0.8-1.9,1.9c0,0,2.9,10.7,4,20.2c1.4,11.9,0,45.9,0,45.9C318.7,155.9,319.6,156.8,320.6,156.8z"/>
	<path class="st11" d="M335.3,160.3h-5.7c-1,0-1.9-0.8-1.9-1.9v-66c0-1,0.8-1.9,1.9-1.9h5.7c1,0,1.9,0.8,1.9,1.9v66
		C337.2,159.5,336.3,160.3,335.3,160.3z"/>
	<path class="st11" d="M321.9,172.5h-5.7c-1,0-1.9-0.8-1.9-1.9v-66c0-1,0.8-1.9,1.9-1.9h5.7c1,0,1.9,0.8,1.9,1.9v66
		C323.8,171.7,323,172.5,321.9,172.5z"/>
	<path class="st11" d="M333.2,180.5h-5.7c-1,0-1.9-0.8-1.9-1.9v-66c0-1,0.8-1.9,1.9-1.9h5.7c1,0,1.9,0.8,1.9,1.9v66
		C335.1,179.7,334.3,180.5,333.2,180.5z"/>
	<path class="st11" d="M375.4,155.3h-5.7c-1,0-1.9-0.8-1.9-1.9v-66c0-1,0.8-1.9,1.9-1.9h5.7c1,0,1.9,0.8,1.9,1.9v66
		C377.3,154.4,376.5,155.3,375.4,155.3z"/>
	<path class="st11" d="M385.8,161.8H380c-1,0-1.9-0.8-1.9-1.9c0,0-1.5-35,0-46.9s4-19.2,4-19.2c0-1,0.8-1.9,1.9-1.9h5.7
		c1,0,1.9,0.8,1.9,1.9c0,0-2.9,10.7-4,20.2c-1.4,11.9,0,45.9,0,45.9C387.6,160.9,386.8,161.8,385.8,161.8z"/>
	<path class="st11" d="M370.7,169.5H365c-1,0-1.9-0.8-1.9-1.9v-66c0-1,0.8-1.9,1.9-1.9h5.7c1,0,1.9,0.8,1.9,1.9v66
		C372.6,168.7,371.7,169.5,370.7,169.5z"/>
	<path class="st11" d="M313.4,160.3c-1.1,0.1-2.1-0.8-2.1-1.9l-0.1-2c-0.1-2.6-0.1-5.8-0.2-9.1c-0.1-15.3-0.3-38.5-11-41l-1.9-0.4
		c-1.1-0.3-1.8-1.4-1.5-2.4l0.9-3.8c0.3-1.1,1.4-1.8,2.4-1.5l1.9,0.4c16.8,3.9,17,29.8,17.2,48.7c0,3.2,0,6.3,0.2,8.8l0.1,2
		c0.1,1.1-0.8,2.1-1.9,2.1L313.4,160.3z"/>
	<path class="st11" d="M385.9,166.3c1.1,0.1,2.1-0.8,2.1-1.9l0.1-2c0.1-2.6,0.1-5.8,0.2-9.1c0.1-15.3,0.3-38.5,11-41l1.9-0.4
		c1.1-0.3,1.8-1.4,1.5-2.4l-0.9-3.8c-0.3-1.1-1.4-1.8-2.4-1.5l-1.9,0.4c-16.8,3.9-17,29.8-17.2,48.7c0,3.2,0,6.3-0.2,8.8l-0.1,2
		c-0.1,1.1,0.8,2.1,1.9,2.1L385.9,166.3z"/>
	<path class="st12" d="M391.8,129.3c0,0-3,8.6-5.5,8.6h-8.4h-56h-8.4c-2.5,0-5.5-8.6-5.5-8.6c-6.6,0-9,7.4-9,14l8,49.5
		c0,6.6,5.4,12,12,12h8.4h44.9h8.4c6.6,0,12-5.4,12-12l8-49.5C400.8,136.7,398.4,129.3,391.8,129.3z"/>
	<path class="st11" d="M402.2,211.3l-1.5,5.5c-0.3,1-1.3,1.6-2.3,1.3l-63.7-17.5c-1-0.3-1.6-1.3-1.3-2.3l1.5-5.5
		c0.3-1,1.3-1.6,2.3-1.3l63.7,17.5C401.9,209.3,402.5,210.3,402.2,211.3z"/>
	<path class="st11" d="M347.8,211c-0.2-1.1,0.5-2.2,1.6-2.4l1.9-0.4c2.6-0.5,5.7-1,8.9-1.5c15.1-2.4,38-6.1,38.9-17l0.2-2
		c0.1-1.1,1.1-2,2.2-1.9l3.9,0.3c1.1,0.1,2,1.1,1.9,2.2l-0.2,2c-1.4,17.2-26.9,21.3-45.6,24.3c-3.2,0.5-6.2,1-8.6,1.5l-1.9,0.4
		c-1.1,0.2-2.2-0.5-2.4-1.6L347.8,211z"/>
	<g>
		<g class="st5">
			<path class="st13" d="M346,129.4h2.7v-3.8h3.7v3.8h6v5h-16.2v-9.3h3.8V129.4z"/>
			<path class="st13" d="M358.4,116.4l-6.3,1.6v0.4h6.3v5h-16.2c0-2.2-0.1-4.6-0.1-6.1c0-4.4,1.8-6,4.5-6c2.4,0,3.5,0.7,4.3,2
				l7.5-2.6V116.4z M345.6,118v0.5h3v-0.4c0-1.2-0.5-1.5-1.6-1.5C346,116.6,345.6,117,345.6,118z"/>
			<path class="st13" d="M358.4,109.6h-16.2v-5h16.2V109.6z"/>
			<path class="st13" d="M358.4,102.2h-16.2v-9.4h3.8v4.4h2.4v-3.7h3.6v3.7h2.6v-4.5h3.8V102.2z"/>
			<path class="st13" d="M358.7,86.6c0,2.1-0.7,4-1.9,5.4l-2.5-1.1c0.6-1.6,0.8-2.6,0.8-3.3c0-1.1-0.4-1.7-1.1-1.7
				c-2.1,0-1.9,5.7-7.1,5.7c-3.2,0-5.1-2.4-5.1-5.8c0-1.6,0.4-3.2,1.6-5L346,82c-0.5,1.3-0.6,2.2-0.6,2.9c0,1,0.4,1.5,1,1.5
				c2.2,0,2.1-6,7.1-6C356.3,80.3,358.7,82.2,358.7,86.6z"/>
		</g>
	</g>
</g>
<g id="shake">
	
		<radialGradient id="SVGID_3_" cx="582.8" cy="149.3" r="93.1" gradientTransform="matrix(1 0 0 -1 0 292)" gradientUnits="userSpaceOnUse">
		<stop  offset="0" style="stop-color:#C88996"/>
		<stop  offset="1" style="stop-color:#FFFFFF"/>
	</radialGradient>
	<circle class="st14" cx="582.8" cy="142.7" r="93.1"/>
	<path class="st15" d="M615.5,86.9c-5.8-2.1-18-4.4-32.7-4.4s-26.4,1.7-32.7,4.4s-9,6.2-9,11.9l10,97.2c0,3.3,1.3,6.3,3.4,8.6
		c0.5,0.8,1.4,1.6,2.8,2.2c0.9,0.5,2,0.9,3,1.2c5.2,1.7,13.3,2.8,22.4,2.8c9.1,0,17.2-1.1,22.4-2.8c1.1-0.3,2.1-0.7,3-1.2
		c1.4-0.7,2.4-1.4,2.8-2.2c2.1-2.2,3.4-5.2,3.4-8.6l10-97.2C624.5,93.2,621.3,89.1,615.5,86.9z"/>
	<g>
		<g>
			<path class="st16" d="M582.3,64.9L580,29.4c-0.1-1.7,1.1-3.1,2.8-3.2s3.1,1.1,3.2,2.8c0,0.1,0,0.3,0,0.4l-2.3,35.5
				c0,0.4-0.4,0.7-0.7,0.7C582.6,65.5,582.3,65.2,582.3,64.9z"/>
		</g>
		<g>
			<path class="st16" d="M552.9,68.2L541.2,40c-0.6-1.5,0.1-3.3,1.6-3.9s3.3,0.1,3.9,1.6c0.1,0.1,0.1,0.3,0.1,0.4l7.3,29.6
				c0.1,0.4-0.1,0.8-0.5,0.9C553.4,68.7,553,68.5,552.9,68.2z"/>
		</g>
		<g>
			<path class="st16" d="M527.7,77l-21-19.2c-1.2-1.1-1.3-3-0.2-4.3c1.1-1.2,3-1.3,4.3-0.2c0.1,0.1,0.2,0.2,0.3,0.4l17.7,22.4
				c0.2,0.3,0.2,0.7-0.1,1C528.3,77.3,527.9,77.3,527.7,77z"/>
		</g>
		<g>
			<path class="st16" d="M509.3,93.3l-24.9-5.4c-1.6-0.4-2.7-2-2.3-3.6c0.4-1.6,2-2.7,3.6-2.3c0.2,0,0.4,0.1,0.5,0.2l23.5,9.8
				c0.4,0.2,0.5,0.6,0.4,0.9C509.9,93.2,509.6,93.3,509.3,93.3z"/>
		</g>
		<g>
			<g>
				<path class="st16" d="M611.4,67.8l7.3-29.6c0.4-1.6,2-2.6,3.6-2.2c1.6,0.4,2.6,2,2.2,3.6c0,0.1-0.1,0.3-0.1,0.4l-11.6,28.2
					c-0.1,0.4-0.6,0.5-0.9,0.4C611.5,68.5,611.4,68.1,611.4,67.8z"/>
			</g>
			<g>
				<path class="st16" d="M636.9,76.1l17.7-22.4c1-1.3,2.9-1.5,4.2-0.5s1.5,2.9,0.5,4.2c-0.1,0.1-0.2,0.3-0.3,0.4L638,77
					c-0.3,0.3-0.7,0.2-1,0C636.7,76.7,636.7,76.3,636.9,76.1z"/>
			</g>
			<g>
				<path class="st16" d="M656,91.9l23.5-9.8c1.5-0.6,3.3,0.1,3.9,1.6c0.6,1.5-0.1,3.3-1.6,3.9c-0.2,0.1-0.3,0.1-0.5,0.2l-24.9,5.4
					c-0.4,0.1-0.8-0.2-0.8-0.5C655.5,92.4,655.6,92,656,91.9z"/>
			</g>
		</g>
	</g>
	<path class="st17" d="M560.2,39.9l-2.6,0.9c-1,0.4-1.6,1.5-1.3,2.5l37.8,111.5c0.4,1,1.5,1.6,2.5,1.3l2.6-0.9
		c1-0.4,1.6-1.5,1.3-2.5L562.7,41.1C562.3,40.1,561.2,39.5,560.2,39.9z"/>
	<path class="st18" d="M546.3,151.4l4.9,45.3c0,3.2,1.3,6.1,3.4,8.2c0.5,0.8,1.4,1.5,2.8,2.2c0.9,0.5,2,0.9,3,1.2
		c5.2,1.6,13.3,2.7,22.4,2.7c9.1,0,17.2-1,22.4-2.7c1.1-0.3,2.1-0.6,3-1.2c1.4-0.7,2.4-1.4,2.8-2.2c2.1-2.1,3.4-5,3.4-8.2l4.9-45.3
		l-6.6-1l-5.9-0.7l-4.4-1.2l-6.3,0.3l-5.4,0.5l-6.2-1.1l-5.3,0.4l-5,0.7h-2.9l-3.3-0.7"/>
	<polygon class="st19" points="611.3,150.1 580.9,149 566.9,88 609.7,88 	"/>
	<rect x="566.9" y="82.7" class="st15" width="15.9" height="8"/>
	<path class="st20" d="M615.5,86.9c-5.8-2.1-18-4.4-32.7-4.4s-26.4,1.7-32.7,4.4s-9,6.2-9,11.9l10,97.2c0,3.3,1.3,6.3,3.4,8.6
		c0.5,0.8,1.4,1.6,2.8,2.2c0.9,0.5,2,0.9,3,1.2c5.2,1.7,13.3,2.8,22.4,2.8c9.1,0,17.2-1.1,22.4-2.8c1.1-0.3,2.1-0.7,3-1.2
		c1.4-0.7,2.4-1.4,2.8-2.2c2.1-2.2,3.4-5.2,3.4-8.6l10-97.2C624.5,93.2,621.3,89.1,615.5,86.9z"/>
	<path class="st21" d="M623.7,105.2c0-5.1-3.2-8.8-8.8-10.7c-5.7-1.9-17.7-4-32.1-4c-14.4,0-25.9,1.5-32.1,4s-8.8,5.6-8.8,10.7"/>
	<path class="st21" d="M546.8,151.9c0-0.7,3.8-0.9,9.2-1.4c2.6-0.2,5.5-1.4,8.9-1.6c2.8-0.1,5.8,0.8,9,0.7c2.9-0.1,5.9-1.1,9-1.1
		s6.1,1,9,1.1c3.2,0.1,6.3-0.8,9-0.7c3.4,0.2,6.4,1.4,8.9,1.6c5.4,0.5,9.2,0.7,9.2,1.4"/>
	<g class="st5">
		<path class="st22" d="M570.4,116c0-3.4-0.1-6.3-0.3-9.7h0l-2.2,9.7h-4.4l-2.1-9.7h0c-0.2,3.5-0.2,6.3-0.3,9.7h-4.6
			c0.1-5.6,0.5-10.7,1.1-16.2h6.6l1.9,8.1h0l2-8.1h6.3c0.6,5.5,0.9,10.6,1.2,16.2H570.4z"/>
		<path class="st22" d="M577.6,116V99.8h5V116H577.6z"/>
		<path class="st22" d="M585,116V99.8h5v12.5h3.6v3.7H585z"/>
		<path class="st22" d="M602.2,116l-2.1-6.7v6.7h-5V99.8h5v6.3l2.1-6.3h5.3l-3.1,7.1l3.3,9.1H602.2z"/>
	</g>
	<g class="st5">
		<path class="st22" d="M546.6,141.3c-2.1,0-4-0.7-5.4-1.9l1.1-2.5c1.6,0.6,2.6,0.8,3.3,0.8c1.1,0,1.7-0.4,1.7-1.1
			c0-2.1-5.7-1.9-5.7-7.1c0-3.2,2.4-5.1,5.8-5.1c1.6,0,3.2,0.4,5,1.6l-1.1,2.5c-1.3-0.5-2.2-0.6-2.9-0.6c-1,0-1.5,0.4-1.5,1
			c0,2.2,6,2.1,6,7.1C552.9,138.9,551,141.3,546.6,141.3z"/>
		<path class="st22" d="M562.7,141v-6.4h-3.4v6.4h-5v-16.2h5v5.6h3.4v-5.6h5V141H562.7z"/>
		<path class="st22" d="M578.7,141c-0.1-0.7-0.4-2.1-0.5-2.7h-4.1c-0.1,0.6-0.3,1.7-0.5,2.7h-4.8c1.2-5.8,2.5-11,4.2-16.2h6.8
			c1.7,5.3,3,10.5,4.2,16.2H578.7z M576.1,129c-0.4,1.7-1,4-1.3,5.6h2.6C577,132.8,576.6,130.7,576.1,129z"/>
		<path class="st22" d="M592.3,141l-2.1-6.7v6.7h-5v-16.2h5v6.3l2.1-6.3h5.3l-3.1,7.1l3.3,9.1H592.3z"/>
		<path class="st22" d="M599.1,141v-16.2h9.4v3.8h-4.4v2.4h3.7v3.6h-3.7v2.6h4.5v3.8H599.1z"/>
		<path class="st22" d="M614.7,141.3c-2.1,0-4-0.7-5.4-1.9l1.1-2.5c1.6,0.6,2.6,0.8,3.3,0.8c1.1,0,1.7-0.4,1.7-1.1
			c0-2.1-5.7-1.9-5.7-7.1c0-3.2,2.4-5.1,5.8-5.1c1.6,0,3.2,0.4,5,1.6l-1.1,2.5c-1.3-0.5-2.2-0.6-2.9-0.6c-1,0-1.5,0.4-1.5,1
			c0,2.2,6,2.1,6,7.1C621,138.9,619.1,141.3,614.7,141.3z"/>
	</g>
	<g class="st5">
		<path class="st23" d="M570.4,116c0-3.4-0.1-6.3-0.3-9.7h0l-2.2,9.7h-4.4l-2.1-9.7h0c-0.2,3.5-0.2,6.3-0.3,9.7h-4.6
			c0.1-5.6,0.5-10.7,1.1-16.2h6.6l1.9,8.1h0l2-8.1h6.3c0.6,5.5,0.9,10.6,1.2,16.2H570.4z"/>
		<path class="st23" d="M577.6,116V99.8h5V116H577.6z"/>
		<path class="st23" d="M585,116V99.8h5v12.5h3.6v3.7H585z"/>
		<path class="st23" d="M602.2,116l-2.1-6.7v6.7h-5V99.8h5v6.3l2.1-6.3h5.3l-3.1,7.1l3.3,9.1H602.2z"/>
	</g>
	<g class="st5">
		<path class="st23" d="M546.6,141.3c-2.1,0-4-0.7-5.4-1.9l1.1-2.5c1.6,0.6,2.6,0.8,3.3,0.8c1.1,0,1.7-0.4,1.7-1.1
			c0-2.1-5.7-1.9-5.7-7.1c0-3.2,2.4-5.1,5.8-5.1c1.6,0,3.2,0.4,5,1.6l-1.1,2.5c-1.3-0.5-2.2-0.6-2.9-0.6c-1,0-1.5,0.4-1.5,1
			c0,2.2,6,2.1,6,7.1C552.9,138.9,551,141.3,546.6,141.3z"/>
		<path class="st23" d="M562.7,141v-6.4h-3.4v6.4h-5v-16.2h5v5.6h3.4v-5.6h5V141H562.7z"/>
		<path class="st23" d="M578.7,141c-0.1-0.7-0.4-2.1-0.5-2.7h-4.1c-0.1,0.6-0.3,1.7-0.5,2.7h-4.8c1.2-5.8,2.5-11,4.2-16.2h6.8
			c1.7,5.3,3,10.5,4.2,16.2H578.7z M576.1,129c-0.4,1.7-1,4-1.3,5.6h2.6C577,132.8,576.6,130.7,576.1,129z"/>
		<path class="st23" d="M592.3,141l-2.1-6.7v6.7h-5v-16.2h5v6.3l2.1-6.3h5.3l-3.1,7.1l3.3,9.1H592.3z"/>
		<path class="st23" d="M599.1,141v-16.2h9.4v3.8h-4.4v2.4h3.7v3.6h-3.7v2.6h4.5v3.8H599.1z"/>
		<path class="st23" d="M614.7,141.3c-2.1,0-4-0.7-5.4-1.9l1.1-2.5c1.6,0.6,2.6,0.8,3.3,0.8c1.1,0,1.7-0.4,1.7-1.1
			c0-2.1-5.7-1.9-5.7-7.1c0-3.2,2.4-5.1,5.8-5.1c1.6,0,3.2,0.4,5,1.6l-1.1,2.5c-1.3-0.5-2.2-0.6-2.9-0.6c-1,0-1.5,0.4-1.5,1
			c0,2.2,6,2.1,6,7.1C621,138.9,619.1,141.3,614.7,141.3z"/>
	</g>
</g>
</svg>
