<?xml version="1.0" encoding="utf-8"?>
<!-- Generator: Adobe Illustrator 22.0.0, SVG Export Plug-In . SVG Version: 6.00 Build 0)  -->
<svg version="1.1" id="Layer_1" xmlns="http://www.w3.org/2000/svg" xmlns:xlink="http://www.w3.org/1999/xlink" x="0px" y="0px"
	 viewBox="0 0 240.5 229" style="enable-background:new 0 0 240.5 229;" xml:space="preserve">
<style type="text/css">
	.st0{fill:#DFCCB4;stroke:#000000;stroke-width:1.5;}
	.st1{fill:#DB866D;stroke:#000000;stroke-width:1.25;}
	.st2{fill:#FCECCD;stroke:#000000;stroke-width:0.75;stroke-linejoin:round;}
	.st3{fill:#6E9B72;stroke:#000000;stroke-width:1.5;stroke-linejoin:round;}
	.st4{fill:#DAEAC3;stroke:#000000;stroke-width:1.25;stroke-miterlimit:10;}
	.st5{fill:#006929;}
	.st7{display:inline;fill:#FCECCD;stroke:#000000;stroke-width:1.5;stroke-linecap:round;stroke-miterlimit:10;}
	.st8{display:inline;}
	.st9{fill:#F8D284;}
	.st10{display:inline;fill:#CFE3EF;stroke:#000000;stroke-width:1.5;stroke-linecap:round;stroke-miterlimit:10;}
	.st11{display:inline;fill:#FFFFFF;}
	.st12{fill:#A54064;}
	.st13{display:inline;fill:#FCECCD;stroke:#000000;stroke-width:1.25;stroke-miterlimit:10;}
	.st14{display:inline;fill:#D7AEB5;}
	.st15{display:inline;fill:#FFFFFF;fill-opacity:0.7;}
	.st16{display:inline;fill:none;stroke:#000000;stroke-width:1.5;stroke-linecap:round;stroke-miterlimit:10;}
	.st17{display:inline;fill:none;stroke:#000000;stroke-width:1.75;stroke-linecap:round;stroke-miterlimit:10;}
	.st18{fill:none;stroke:#000000;stroke-width:1.75;stroke-linecap:round;stroke-miterlimit:10;}
</style>
<g id="veggie">
	<path class="st0" d="M190.4,121.1c3.9,0,7.1-2.7,7.1-6v-1.3C197.5,94,166,78,127.2,78S57,94,57,113.7v1.3c0,3.3,3.2,6,7.1,6
		L190.4,121.1L190.4,121.1z"/>
	<path class="st0" d="M63.6,171.6c-3.9,0-7.1,1.7-7.1,4.7v1.2c0,17.7,31.5,19.7,70.2,19.7s70.2-2,70.2-19.7v-1.2
		c0-3-3.2-4.7-7.1-4.7H63.6z"/>
	<g>
		<path class="st1" d="M98.9,167.3H58.5c-1.7,0-3.1-1.4-3.1-3.1l0,0c0-1.7,1.4-3.1,3.1-3.1h40.3c1.7,0,3.1,1.4,3.1,3.1l0,0
			C102,165.9,100.6,167.3,98.9,167.3z"/>
		<path class="st1" d="M147.4,167.3h-40.3c-1.7,0-3.1-1.4-3.1-3.1l0,0c0-1.7,1.4-3.1,3.1-3.1h40.3c1.7,0,3.1,1.4,3.1,3.1l0,0
			C150.5,165.9,149.1,167.3,147.4,167.3z"/>
		<path class="st1" d="M196,167.3h-40.3c-1.7,0-3.1-1.4-3.1-3.1l0,0c0-1.7,1.4-3.1,3.1-3.1H196c1.7,0,3.1,1.4,3.1,3.1l0,0
			C199.1,165.9,197.7,167.3,196,167.3z"/>
	</g>
	<g id="seeds">
		<g>
			<path class="st2" d="M109.3,86.3c0.5-0.4,0.2-1.2-0.4-1.2c-0.9-0.1-2.2-0.1-3,0.1C102.7,86,104.6,90.7,109.3,86.3z"/>
		</g>
		<g>
			<path class="st2" d="M145.8,86.3c-0.5-0.4-0.2-1.2,0.4-1.2c0.9-0.1,2.2-0.1,3,0.1C152.4,86,150.4,90.7,145.8,86.3z"/>
		</g>
		<g>
			<path class="st2" d="M118.6,88c0.4,0.5,1.2,0.3,1.3-0.3c0.1-0.9,0.2-2.1,0-3C119.2,81.5,114.5,83.1,118.6,88z"/>
		</g>
		<g>
			<path class="st2" d="M110.2,89.2c-0.6,0.1-0.9,0.8-0.5,1.2c0.7,0.7,1.6,1.4,2.5,1.8C115.2,93.5,116.6,88.7,110.2,89.2z"/>
		</g>
		<g>
			<path class="st2" d="M139.1,88.3c-0.6,0.1-0.9,0.8-0.5,1.2c0.7,0.7,1.6,1.4,2.5,1.8C144.1,92.6,145.5,87.8,139.1,88.3z"/>
		</g>
		<g>
			<path class="st2" d="M137.1,83.5c-0.1-0.6-0.9-0.8-1.3-0.4c-0.6,0.7-1.3,1.7-1.6,2.6C133.1,88.7,138.1,89.8,137.1,83.5z"/>
		</g>
		<g>
			<path class="st2" d="M97.7,86.2c-0.1-0.6-0.9-0.8-1.3-0.4c-0.6,0.7-1.3,1.7-1.6,2.6C93.8,91.4,98.7,92.5,97.7,86.2z"/>
		</g>
		<g>
			<path class="st2" d="M129.3,85.8c0.6,0.2,0.6,1,0.1,1.3c-0.8,0.4-2,0.9-2.9,1C123.2,88.4,123.3,83.3,129.3,85.8z"/>
		</g>
		<g>
			<path class="st2" d="M158.8,85.5c0.6-0.2,1.2,0.3,1,0.9c-0.3,0.9-0.8,2-1.4,2.7C156.3,91.6,152.9,87.9,158.8,85.5z"/>
		</g>
	</g>
	<g>
		<g>
			<path class="st3" d="M41.6,151c0,0,2.1-11.6,13.1-11.1C63.4,140.3,61,154.5,41.6,151z"/>
			<g>
				<path d="M55.3,144.1c-3.3,1.5-6.6,3.1-9.7,5c-1.6,0.9-3.1,1.9-4.5,3s-2.8,2.2-3.8,3.6l0,0c-0.2,0.3-0.7,0.4-1,0.2
					s-0.4-0.7-0.2-1l0,0c1.2-1.6,2.7-2.7,4.3-3.7c1.5-1,3.1-2,4.8-2.8c3.2-1.7,6.6-3.2,10-4.5C55.3,143.9,55.4,143.9,55.3,144.1
					C55.4,144,55.4,144.1,55.3,144.1z"/>
			</g>
		</g>
		<g>
			<path class="st3" d="M145,151c0,0,2.1-11.6,13.1-11.1C166.8,140.3,164.4,154.5,145,151z"/>
			<g>
				<path d="M158.7,144.1c-3.3,1.5-6.6,3.1-9.7,5c-1.6,0.9-3.1,1.9-4.5,3s-2.8,2.2-3.8,3.6l0,0c-0.2,0.3-0.7,0.4-1,0.2
					s-0.4-0.7-0.2-1l0,0c1.2-1.6,2.7-2.7,4.3-3.7c1.5-1,3.1-2,4.8-2.8c3.2-1.7,6.6-3.2,10-4.5c0.1,0,0.2,0,0.2,0.1
					C158.8,144,158.7,144.1,158.7,144.1z"/>
			</g>
		</g>
		<g>
			<path class="st3" d="M185.1,142.9c0,0-3.5,11.3-14.4,9.5C162.3,150.9,166.3,137.1,185.1,142.9z"/>
			<g>
				<path d="M170.8,148.1c3.5-1.1,6.9-2.3,10.2-3.8c1.7-0.7,3.3-1.5,4.8-2.4s3-1.9,4.2-3.1l0,0c0.3-0.3,0.7-0.3,1.1-0.1
					c0.3,0.3,0.3,0.7,0.1,1.1l0,0c-1.4,1.4-3,2.3-4.7,3.2c-1.6,0.8-3.3,1.6-5,2.2c-3.4,1.3-6.9,2.4-10.5,3.3c-0.1,0-0.2,0-0.2-0.1
					C170.6,148.2,170.7,148.1,170.8,148.1z"/>
			</g>
		</g>
		<g>
			<path class="st3" d="M68.9,143.5c0,0,9.7-6.7,17.1,1.4C91.8,151.3,80.1,159.7,68.9,143.5z"/>
			<g>
				<path d="M83.4,148.3C80,147,76.6,145.9,73,145c-1.7-0.5-3.5-0.8-5.3-1.1c-1.8-0.2-3.6-0.4-5.2-0.1l0,0c-0.4,0.1-0.8-0.2-0.9-0.6
					c-0.1-0.4,0.2-0.8,0.6-0.9l0,0c2-0.2,3.8,0,5.6,0.4s3.6,0.8,5.3,1.4c3.5,1.1,6.9,2.4,10.2,3.9c0.1,0,0.1,0.1,0.1,0.2
					C83.6,148.3,83.5,148.3,83.4,148.3z"/>
			</g>
		</g>
		<g>
			<path class="st3" d="M119.7,145.4c0,0,9.7-6.7,17.1,1.4C142.7,153.2,131,161.6,119.7,145.4z"/>
			<g>
				<path d="M134.2,150.2c-3.4-1.3-6.8-2.4-10.4-3.3c-1.7-0.5-3.5-0.8-5.3-1.1c-1.8-0.2-3.6-0.4-5.2-0.1l0,0
					c-0.4,0.1-0.8-0.2-0.9-0.6c-0.1-0.4,0.2-0.8,0.6-0.9l0,0c2-0.2,3.8,0,5.6,0.4c1.8,0.4,3.6,0.8,5.3,1.4c3.5,1.1,6.9,2.4,10.2,3.9
					c0.1,0,0.1,0.1,0.1,0.2C134.4,150.2,134.3,150.2,134.2,150.2z"/>
			</g>
		</g>
		<g>
			<path class="st3" d="M111,151.7c0,0-9.7,6.7-17.1-1.4C88.1,143.9,99.8,135.5,111,151.7z"/>
			<g>
				<path d="M96.5,146.9c3.4,1.3,6.8,2.4,10.4,3.3c1.7,0.5,3.5,0.8,5.3,1.1c1.8,0.2,3.6,0.4,5.2,0.1l0,0c0.4-0.1,0.8,0.2,0.9,0.6
					c0.1,0.4-0.2,0.8-0.6,0.9l0,0c-2,0.2-3.8,0-5.6-0.4c-1.8-0.4-3.6-0.8-5.3-1.4c-3.5-1.1-6.9-2.4-10.2-3.9c-0.1,0-0.1-0.1-0.1-0.2
					C96.3,146.9,96.4,146.9,96.5,146.9z"/>
			</g>
		</g>
		<g>
			<path class="st3" d="M210.1,151.6c0,0-2.2-11.6-13.2-11C188.3,141,190.8,155.2,210.1,151.6z"/>
			<g>
				<path d="M196.6,144.4c3.4,1.3,6.8,2.8,10,4.4c1.6,0.8,3.2,1.8,4.8,2.8c1.5,1,3,2.1,4.3,3.7c0.3,0.3,0.2,0.8-0.1,1.1
					s-0.8,0.2-1.1-0.1l0,0l0,0c-1-1.4-2.4-2.5-3.8-3.6c-1.4-1.1-2.9-2.1-4.5-3c-3.1-1.8-6.4-3.5-9.7-4.9c-0.1,0-0.1-0.1-0.1-0.2
					S196.5,144.4,196.6,144.4z"/>
			</g>
		</g>
	</g>
	<path class="st4" d="M197.4,134c-6.9,0-10.5-0.5-13.9-1c-3.5-0.5-7.1-1-14.1-1c-7.1,0-10.6,0.5-14.1,1c-3.4,0.5-7,1-14,1
		s-10.5-0.5-14-1s-7.1-1-14.1-1c-7.1,0-10.6,0.5-14.1,1c-3.4,0.5-7,1-14,1s-10.5-0.5-14-1c-3.4-0.5-7-1-13.9-1
		c-1.9,0-3.4-1.6-3.4-3.5c0-1.9,1.5-3.5,3.4-3.5c6.9,0,10.4,0.5,13.8,1c3.5,0.5,7.1,1,14.1,1c7.1,0,10.6-0.5,14.1-1
		c3.4-0.5,7-1,14-1s10.5,0.5,14,1c3.5,0.5,7.1,1,14.1,1c7.1,0,10.6-0.5,14.1-1c3.4-0.5,7-1,14-1s10.5,0.5,14,1s7,1,14.1,1
		c1.9,0,3.4,1.6,3.4,3.5C200.8,132.4,199.3,134,197.4,134z"/>
	<g>
		<g>
			<path class="st5" d="M126.7,64.9l-2.3-35.5c-0.1-1.7,1.1-3.1,2.8-3.2c1.7-0.1,3.1,1.1,3.2,2.8c0,0.1,0,0.3,0,0.4l-2.3,35.5
				c0,0.4-0.4,0.7-0.7,0.7C127,65.5,126.8,65.2,126.7,64.9z"/>
		</g>
		<g>
			<path class="st5" d="M97.3,68.2L85.7,40c-0.6-1.5,0.1-3.3,1.6-3.9s3.3,0.1,3.9,1.6c0.1,0.1,0.1,0.3,0.1,0.4l7.3,29.6
				c0.1,0.4-0.1,0.8-0.5,0.9C97.8,68.7,97.4,68.5,97.3,68.2z"/>
		</g>
		<g>
			<path class="st5" d="M72.1,77l-21-19.2c-1.2-1.1-1.3-3-0.2-4.3c1.1-1.2,3-1.3,4.3-0.2c0.1,0.1,0.2,0.2,0.3,0.4l17.7,22.4
				c0.2,0.3,0.2,0.7-0.1,1C72.8,77.3,72.4,77.3,72.1,77z"/>
		</g>
		<g>
			<path class="st5" d="M53.7,93.3l-24.9-5.4c-1.6-0.4-2.7-2-2.3-3.6c0.4-1.6,2-2.7,3.6-2.3c0.2,0,0.4,0.1,0.5,0.2L54.1,92
				c0.4,0.2,0.5,0.6,0.4,0.9C54.4,93.2,54,93.3,53.7,93.3z"/>
		</g>
		<g>
			<g>
				<path class="st5" d="M155.9,67.8l7.3-29.6c0.4-1.6,2-2.6,3.6-2.2c1.6,0.4,2.6,2,2.2,3.6c0,0.1-0.1,0.3-0.1,0.4l-11.6,28.2
					c-0.1,0.4-0.6,0.5-0.9,0.4C156,68.5,155.8,68.1,155.9,67.8z"/>
			</g>
			<g>
				<path class="st5" d="M181.4,76.1L199,53.7c1-1.3,2.9-1.5,4.2-0.5s1.5,2.9,0.5,4.2c-0.1,0.1-0.2,0.3-0.3,0.4l-21,19.2
					c-0.3,0.3-0.7,0.2-1,0C181.1,76.7,181.1,76.3,181.4,76.1z"/>
			</g>
			<g>
				<path class="st5" d="M200.4,91.9l23.5-9.8c1.5-0.6,3.3,0.1,3.9,1.6c0.6,1.5-0.1,3.3-1.6,3.9c-0.2,0.1-0.3,0.1-0.5,0.2l-24.9,5.4
					c-0.4,0.1-0.8-0.2-0.8-0.5C199.9,92.4,200.1,92,200.4,91.9z"/>
			</g>
		</g>
	</g>
</g>
<g id="fries" class="st6">
	<path class="st7" d="M127.5,151.8h-5.7c-1,0-1.9-0.8-1.9-1.9c0,0-1.5-35,0-46.9s4-19.2,4-19.2c0-1,0.8-1.9,1.9-1.9h5.7
		c1,0,1.9,0.8,1.9,1.9c0,0-2.9,10.7-4,20.2c-1.4,11.9,0,45.9,0,45.9C129.4,150.9,128.5,151.8,127.5,151.8z"/>
	<g class="st8">
		<g>
			<path class="st9" d="M126.2,64.9l-2.3-35.5c-0.1-1.7,1.1-3.1,2.8-3.2c1.7-0.1,3.1,1.1,3.2,2.8c0,0.1,0,0.3,0,0.4l-2.3,35.5
				c0,0.4-0.4,0.7-0.7,0.7C126.5,65.5,126.3,65.2,126.2,64.9z"/>
		</g>
		<g>
			<path class="st9" d="M96.8,68.2L85.2,40c-0.6-1.5,0.1-3.3,1.6-3.9s3.3,0.1,3.9,1.6c0.1,0.1,0.1,0.3,0.1,0.4l7.3,29.6
				c0.1,0.4-0.1,0.8-0.5,0.9C97.3,68.7,96.9,68.5,96.8,68.2z"/>
		</g>
		<g>
			<path class="st9" d="M71.6,77l-21-19.2c-1.2-1.1-1.3-3-0.2-4.3c1.1-1.2,3-1.3,4.3-0.2c0.1,0.1,0.2,0.2,0.3,0.4l17.7,22.4
				c0.2,0.3,0.2,0.7-0.1,1C72.3,77.3,71.9,77.3,71.6,77z"/>
		</g>
		<g>
			<path class="st9" d="M53.2,93.3l-24.9-5.4c-1.6-0.4-2.7-2-2.3-3.6c0.4-1.6,2-2.7,3.6-2.3c0.2,0,0.4,0.1,0.5,0.2L53.6,92
				c0.4,0.2,0.5,0.6,0.4,0.9C53.9,93.2,53.5,93.3,53.2,93.3z"/>
		</g>
		<g>
			<g>
				<path class="st9" d="M155.4,67.8l7.3-29.6c0.4-1.6,2-2.6,3.6-2.2c1.6,0.4,2.6,2,2.2,3.6c0,0.1-0.1,0.3-0.1,0.4l-11.6,28.2
					c-0.1,0.4-0.6,0.5-0.9,0.4C155.5,68.5,155.3,68.1,155.4,67.8z"/>
			</g>
			<g>
				<path class="st9" d="M180.9,76.1l17.7-22.4c1-1.3,2.9-1.5,4.2-0.5s1.5,2.9,0.5,4.2c-0.1,0.1-0.2,0.3-0.3,0.4L182,77
					c-0.3,0.3-0.7,0.2-1,0C180.6,76.7,180.6,76.3,180.9,76.1z"/>
			</g>
			<g>
				<path class="st9" d="M199.9,91.9l23.5-9.8c1.5-0.6,3.3,0.1,3.9,1.6c0.6,1.5-0.1,3.3-1.6,3.9c-0.2,0.1-0.3,0.1-0.5,0.2l-24.9,5.4
					c-0.4,0.1-0.8-0.2-0.8-0.5C199.4,92.4,199.6,92,199.9,91.9z"/>
			</g>
		</g>
	</g>
	<path class="st7" d="M97.5,156.8h5.7c1,0,1.9-0.8,1.9-1.9c0,0,1.5-35,0-46.9s-4-19.2-4-19.2c0-1-0.8-1.9-1.9-1.9h-5.7
		c-1,0-1.9,0.8-1.9,1.9c0,0,2.9,10.7,4,20.2c1.4,11.9,0,45.9,0,45.9C95.6,155.9,96.4,156.8,97.5,156.8z"/>
	<path class="st7" d="M112.1,160.3h-5.7c-1,0-1.9-0.8-1.9-1.9v-66c0-1,0.8-1.9,1.9-1.9h5.7c1,0,1.9,0.8,1.9,1.9v66
		C114,159.5,113.2,160.3,112.1,160.3z"/>
	<path class="st7" d="M98.8,172.5H93c-1,0-1.9-0.8-1.9-1.9v-66c0-1,0.8-1.9,1.9-1.9h5.7c1,0,1.9,0.8,1.9,1.9v66
		C100.7,171.7,99.8,172.5,98.8,172.5z"/>
	<path class="st7" d="M136.3,160.3h-5.7c-1,0-1.9-0.8-1.9-1.9v-66c0-1,0.8-1.9,1.9-1.9h5.7c1,0,1.9,0.8,1.9,1.9v66
		C138.2,159.5,137.3,160.3,136.3,160.3z"/>
	<path class="st7" d="M123,172.5h-5.7c-1,0-1.9-0.8-1.9-1.9v-66c0-1,0.8-1.9,1.9-1.9h5.7c1,0,1.9,0.8,1.9,1.9v66
		C124.8,171.7,124,172.5,123,172.5z"/>
	<path class="st7" d="M110.1,180.5h-5.7c-1,0-1.9-0.8-1.9-1.9v-66c0-1,0.8-1.9,1.9-1.9h5.7c1,0,1.9,0.8,1.9,1.9v66
		C112,179.7,111.1,180.5,110.1,180.5z"/>
	<path class="st7" d="M152.3,155.3h-5.7c-1,0-1.9-0.8-1.9-1.9v-66c0-1,0.8-1.9,1.9-1.9h5.7c1,0,1.9,0.8,1.9,1.9v66
		C154.2,154.4,153.3,155.3,152.3,155.3z"/>
	<path class="st7" d="M162.6,161.8h-5.7c-1,0-1.9-0.8-1.9-1.9c0,0-1.5-35,0-46.9s4-19.2,4-19.2c0-1,0.8-1.9,1.9-1.9h5.7
		c1,0,1.9,0.8,1.9,1.9c0,0-2.9,10.7-4,20.2c-1.4,11.9,0,45.9,0,45.9C164.5,160.9,163.6,161.8,162.6,161.8z"/>
	<path class="st7" d="M147.5,169.5h-5.7c-1,0-1.9-0.8-1.9-1.9v-66c0-1,0.8-1.9,1.9-1.9h5.7c1,0,1.9,0.8,1.9,1.9v66
		C149.4,168.7,148.6,169.5,147.5,169.5z"/>
	<path class="st7" d="M90.2,160.3c-1.1,0.1-2.1-0.8-2.1-1.9l-0.1-2c-0.1-2.6-0.1-5.8-0.2-9.1c-0.1-15.3-0.3-38.5-11-41l-1.9-0.4
		c-1.1-0.3-1.8-1.4-1.5-2.4l0.9-3.8c0.3-1.1,1.4-1.8,2.4-1.5l1.9,0.4c16.8,3.9,17,29.8,17.2,48.7c0,3.2,0,6.3,0.2,8.8l0.1,2
		c0.1,1.1-0.8,2.1-1.9,2.1L90.2,160.3z"/>
	<path class="st7" d="M162.7,166.3c1.1,0.1,2.1-0.8,2.1-1.9l0.1-2c0.1-2.6,0.1-5.8,0.2-9.1c0.1-15.3,0.3-38.5,11-41l1.9-0.4
		c1.1-0.3,1.8-1.4,1.5-2.4l-0.9-3.8c-0.3-1.1-1.4-1.8-2.4-1.5l-1.9,0.4c-16.8,3.9-17,29.8-17.2,48.7c0,3.2,0,6.3-0.2,8.8l-0.1,2
		c-0.1,1.1,0.8,2.1,1.9,2.1L162.7,166.3z"/>
	<path class="st10" d="M168.6,129.3c0,0-3,8.6-5.5,8.6h-8.4h-56h-8.4c-2.5,0-5.5-8.6-5.5-8.6c-6.6,0-9,7.4-9,14l8,49.5
		c0,6.6,5.4,12,12,12h8.4h44.9h8.4c6.6,0,12-5.4,12-12l8-49.5C177.6,136.7,175.2,129.3,168.6,129.3z"/>
	<path class="st7" d="M179.1,211.3l-1.5,5.5c-0.3,1-1.3,1.6-2.3,1.3l-63.7-17.5c-1-0.3-1.6-1.3-1.3-2.3l1.5-5.5
		c0.3-1,1.3-1.6,2.3-1.3l63.7,17.5C178.8,209.3,179.3,210.3,179.1,211.3z"/>
	<path class="st7" d="M124.6,211c-0.2-1.1,0.5-2.2,1.6-2.4l1.9-0.4c2.6-0.5,5.7-1,8.9-1.5c15.1-2.4,38-6.1,38.9-17l0.2-2
		c0.1-1.1,1.1-2,2.2-1.9l3.9,0.3c1.1,0.1,2,1.1,1.9,2.2l-0.2,2c-1.4,17.2-26.9,21.3-45.6,24.3c-3.2,0.5-6.2,1-8.6,1.5l-1.9,0.4
		c-1.1,0.2-2.2-0.5-2.4-1.6L124.6,211z"/>
</g>
<g id="shake" class="st6">
	<path class="st11" d="M159.4,86.9c-5.8-2.1-18-4.4-32.7-4.4s-26.4,1.7-32.7,4.4s-9,6.2-9,11.9L95,196c0,3.3,1.3,6.3,3.4,8.6
		c0.5,0.8,1.4,1.6,2.8,2.2c0.9,0.5,2,0.9,3,1.2c5.2,1.7,13.3,2.8,22.4,2.8s17.2-1.1,22.4-2.8c1.1-0.3,2.1-0.7,3-1.2
		c1.4-0.7,2.4-1.4,2.8-2.2c2.1-2.2,3.4-5.2,3.4-8.6l10-97.2C168.4,93.2,165.2,89.1,159.4,86.9z"/>
	<g class="st8">
		<g>
			<path class="st12" d="M126.2,64.9l-2.3-35.5c-0.1-1.7,1.1-3.1,2.8-3.2c1.7-0.1,3.1,1.1,3.2,2.8c0,0.1,0,0.3,0,0.4l-2.3,35.5
				c0,0.4-0.4,0.7-0.7,0.7C126.5,65.5,126.3,65.2,126.2,64.9z"/>
		</g>
		<g>
			<path class="st12" d="M96.8,68.2L85.2,40c-0.6-1.5,0.1-3.3,1.6-3.9s3.3,0.1,3.9,1.6c0.1,0.1,0.1,0.3,0.1,0.4l7.3,29.6
				c0.1,0.4-0.1,0.8-0.5,0.9C97.3,68.7,96.9,68.5,96.8,68.2z"/>
		</g>
		<g>
			<path class="st12" d="M71.6,77l-21-19.2c-1.2-1.1-1.3-3-0.2-4.3c1.1-1.2,3-1.3,4.3-0.2c0.1,0.1,0.2,0.2,0.3,0.4l17.7,22.4
				c0.2,0.3,0.2,0.7-0.1,1C72.3,77.3,71.9,77.3,71.6,77z"/>
		</g>
		<g>
			<path class="st12" d="M53.2,93.3l-24.9-5.4c-1.6-0.4-2.7-2-2.3-3.6c0.4-1.6,2-2.7,3.6-2.3c0.2,0,0.4,0.1,0.5,0.2L53.6,92
				c0.4,0.2,0.5,0.6,0.4,0.9C53.9,93.2,53.5,93.3,53.2,93.3z"/>
		</g>
		<g>
			<g>
				<path class="st12" d="M155.4,67.8l7.3-29.6c0.4-1.6,2-2.6,3.6-2.2c1.6,0.4,2.6,2,2.2,3.6c0,0.1-0.1,0.3-0.1,0.4l-11.6,28.2
					c-0.1,0.4-0.6,0.5-0.9,0.4C155.5,68.5,155.3,68.1,155.4,67.8z"/>
			</g>
			<g>
				<path class="st12" d="M180.9,76.1l17.7-22.4c1-1.3,2.9-1.5,4.2-0.5s1.5,2.9,0.5,4.2c-0.1,0.1-0.2,0.3-0.3,0.4L182,77
					c-0.3,0.3-0.7,0.2-1,0C180.6,76.7,180.6,76.3,180.9,76.1z"/>
			</g>
			<g>
				<path class="st12" d="M199.9,91.9l23.5-9.8c1.5-0.6,3.3,0.1,3.9,1.6c0.6,1.5-0.1,3.3-1.6,3.9c-0.2,0.1-0.3,0.1-0.5,0.2
					l-24.9,5.4c-0.4,0.1-0.8-0.2-0.8-0.5C199.4,92.4,199.6,92,199.9,91.9z"/>
			</g>
		</g>
	</g>
	<path class="st13" d="M104.1,39.9l-2.6,0.9c-1,0.4-1.6,1.5-1.3,2.5L138,154.8c0.4,1,1.5,1.6,2.5,1.3l2.6-0.9c1-0.4,1.6-1.5,1.3-2.5
		L106.6,41.1C106.3,40.1,105.1,39.5,104.1,39.9z"/>
	<path class="st14" d="M90.2,151.4l4.9,45.3c0,3.2,1.3,6.1,3.4,8.2c0.5,0.8,1.4,1.5,2.8,2.2c0.9,0.5,2,0.9,3,1.2
		c5.2,1.6,13.3,2.7,22.4,2.7s17.2-1,22.4-2.7c1.1-0.3,2.1-0.6,3-1.2c1.4-0.7,2.4-1.4,2.8-2.2c2.1-2.1,3.4-5,3.4-8.2l4.9-45.3l-6.6-1
		l-5.9-0.7l-4.4-1.2l-6.3,0.3l-5.4,0.5l-6.2-1.1l-5.3,0.4l-5,0.7h-2.9l-3.3-0.7"/>
	<polygon class="st15" points="155.2,150.1 124.8,149 110.9,88 153.7,88 	"/>
	<rect x="110.9" y="82.7" class="st11" width="15.9" height="8"/>
	<path class="st16" d="M159.4,86.9c-5.8-2.1-18-4.4-32.7-4.4s-26.4,1.7-32.7,4.4s-9,6.2-9,11.9L95,196c0,3.3,1.3,6.3,3.4,8.6
		c0.5,0.8,1.4,1.6,2.8,2.2c0.9,0.5,2,0.9,3,1.2c5.2,1.7,13.3,2.8,22.4,2.8s17.2-1.1,22.4-2.8c1.1-0.3,2.1-0.7,3-1.2
		c1.4-0.7,2.4-1.4,2.8-2.2c2.1-2.2,3.4-5.2,3.4-8.6l10-97.2C168.4,93.2,165.2,89.1,159.4,86.9z"/>
	<path class="st17" d="M167.7,105.2c0-5.1-3.2-8.8-8.8-10.7s-17.7-4-32.1-4s-25.9,1.5-32.1,4s-8.8,5.6-8.8,10.7"/>
	<g class="st8">
		<path class="st18" d="M90.7,151.9c0-0.7,3.8-0.9,9.2-1.4c2.6-0.2,5.5-1.4,8.9-1.6c2.8-0.1,5.8,0.8,9,0.7c2.9-0.1,5.9-1.1,9-1.1
			s6.1,1,9,1.1c3.2,0.1,6.3-0.8,9-0.7c3.4,0.2,6.4,1.4,8.9,1.6c5.4,0.5,9.2,0.7,9.2,1.4"/>
	</g>
</g>
</svg>
